<svg t="1769832412474" class="icon" viewBox="0 0 1024 1024" version="1.1" xmlns="http://www.w3.org/2000/svg" p-id="10333" width="200" height="200"><path d="M511.025939 684.275698c234.324943 0 426.471396 70.297483 426.471396 173.400458s-192.146453 164.02746-426.471396 164.02746-426.471396-60.924485-426.471396-164.02746 192.146453-173.400458 426.471396-173.400458z" fill="#6699FF" p-id="10334"></path><path d="M421.982461 595.23222h178.086956v149.967963h-178.086956v-149.967963zM670.3669 393.712769c0 28.118993 23.432494 56.237986 56.237987 56.237986 28.118993 0 56.237986-23.432494 56.237986-56.237986s-23.432494-56.237986-56.237986-56.237986-56.237986 23.432494-56.237987 56.237986zM243.895504 393.712769c0 28.118993 23.432494 56.237986 56.237987 56.237986s56.237986-23.432494 56.237986-56.237986-23.432494-56.237986-56.237986-56.237986-56.237986 23.432494-56.237987 56.237986z" fill="#F7D2BA" p-id="10335"></path><path d="M511.025939 117.209336c121.84897 4.686499 215.578947 103.102975 215.578948 224.951945v89.043479c-9.372998 117.162471-98.416476 210.892449-215.578948 224.951945-117.162471-9.372998-206.20595-107.789474-215.578947-224.951945v-89.043479c0-121.84897 93.729977-224.951945 215.578947-224.951945z" fill="#FBE4D4" p-id="10336"></path><path d="M440.728456 18.79286c-60.924485 0-117.162471 23.432494-164.02746 60.924486 32.805492 18.745995 60.924485 23.432494 9.372998 117.162471l56.237986-28.118993s46.864989-32.805492 32.805492 9.372998c-14.059497 46.864989 60.924485-42.17849 65.610984-79.670481 4.686499-28.118993 4.686499-51.551487 0-79.670481z" fill="#284778" p-id="10337"></path><path d="M520.398937 0.046865c-145.281465 4.686499-253.070938 126.535469-248.384439 267.130435 0 18.745995 4.686499 42.17849 9.372997 60.924485 14.059497 46.864989 32.805492 37.491991 32.805492 18.745995s14.059497-112.475973 70.297483-112.475972 74.983982 37.491991 135.908467 42.178489h4.686499c60.924485 0 79.670481-42.17849 135.908467-42.178489s70.297483 89.043478 70.297482 112.475972c0 14.059497 23.432494 28.118993 32.805492-23.432494 37.491991-135.908467-42.17849-276.503432-178.086956-318.681922-28.118993 0-46.864989 0-65.610984-4.686499z" fill="#284778" p-id="10338"></path><path d="M421.982461 651.470206l98.416476 98.416476-70.297483 79.67048-84.356979-135.908466 56.237986-42.17849z" fill="#FFFFFF" p-id="10339"></path><path d="M600.069417 651.470206l-98.416476 98.416476 70.297483 84.356979 84.35698-135.908466-56.237987-46.864989z" fill="#FFFFFF" p-id="10340"></path></svg>
